# xmcd
#
# Track frame offsets: 
#        150
#        12890
#        26102
#        39287
#        52207
#        65267
#        78552
#        91225
#        103475
#        117000
#        129032
#        143060
#        155412
#        168670
#        182717
#        197177
#        211450
#        226112
#        240325
#
# Disc length: 3388 seconds
#
# Revision: 0
# Processed by: cddbd v1.5.1PL0 Copyright (c) Steve Scherf et al.
# Submitted via: ExactAudioCopy v0.95a5
#
DISCID=fb0d3a13
DTITLE=Stokes And Sane - The Beale Street Sheiks (1927 - 1929)
DYEAR=1900
DGENRE=Blues
TTITLE0=You Shall
TTITLE1=It's A Good Thing
TTITLE2=Sweet To Mama
TTITLE3=Half Cup Of Tea
TTITLE4=Beale Town Bound
TTITLE5=Last Go Round
TTITLE6=Jazzin' The Blues
TTITLE7=You Shall (Alt.)
TTITLE8=It's A Good Thing II (Alt.)
TTITLE9=Mr. Crump Don't Like It
TTITLE10=Chicken You Can Roost Behind The Moon
TTITLE11=Blues In "D"
TTITLE12=Ain't Goin' To Do Like I Used To Do
TTITLE13=Hunting Blues
TTITLE14=Rockin' On The Hill Blues
TTITLE15=Fillin' In Blues - Part 1
TTITLE16=Fillin' In Blues - Part 2
TTITLE17=Wasn't That Doggin' Me
TTITLE18=Jumpin' On The Hill
EXTD=
EXTT0=
EXTT1=
EXTT2=
EXTT3=
EXTT4=
EXTT5=
EXTT6=
EXTT7=
EXTT8=
EXTT9=
EXTT10=
EXTT11=
EXTT12=
EXTT13=
EXTT14=
EXTT15=
EXTT16=
EXTT17=
EXTT18=
PLAYORDER=
